<?xml version="1.0" encoding="UTF-8"?>
<svg xmlns="http://www.w3.org/2000/svg" xmlns:xlink="http://www.w3.org/1999/xlink" width="28.621194pt" height="43.09755pt" viewBox="0 0 28.621194 43.09755" version="1.1">
<defs>
<clipPath id="clip1">
  <path d="M 0 0 L 28.621094 0 L 28.621094 43.097656 L 0 43.097656 Z M 0 0 "/>
</clipPath>
</defs>
<g id="surface1">
<g clip-path="url(#clip1)" clip-rule="nonzero">
<rect x="0" y="0" width="28.621194" height="43.09755" style="fill:rgb(100%,100%,100%);fill-opacity:1;stroke:none;"/>
</g>
<path style=" stroke:none;fill-rule:evenodd;fill:rgb(92.941284%,49.01886%,19.215393%);fill-opacity:1;" d="M 12.125 36.324219 L 17.53125 36.324219 L 17.53125 41.730469 L 12.125 41.730469 Z M 14.867188 2.417969 C 18.644531 2.417969 21.660156 3.445312 23.910156 5.5 C 26.160156 7.558594 27.285156 10.046875 27.285156 12.964844 C 27.285156 14.652344 26.890625 16.207031 26.101562 17.628906 C 25.308594 19.054688 23.761719 20.785156 21.460938 22.824219 C 19.914062 24.195312 18.902344 25.207031 18.425781 25.855469 C 17.953125 26.507812 17.601562 27.253906 17.371094 28.097656 C 17.144531 28.941406 17.011719 30.3125 16.976562 32.210938 L 12.414062 32.210938 C 12.398438 31.578125 12.390625 31.105469 12.390625 30.789062 C 12.390625 28.925781 12.652344 27.316406 13.179688 25.960938 C 13.566406 24.941406 14.191406 23.914062 15.050781 22.878906 C 15.683594 22.121094 16.824219 21.019531 18.464844 19.570312 C 20.109375 18.117188 21.175781 16.960938 21.671875 16.101562 C 22.164062 15.238281 22.410156 14.300781 22.410156 13.28125 C 22.410156 11.433594 21.6875 9.8125 20.246094 8.414062 C 18.804688 7.019531 17.039062 6.320312 14.945312 6.320312 C 12.925781 6.320312 11.238281 6.953125 9.882812 8.21875 C 8.53125 9.484375 7.644531 11.460938 7.222656 14.148438 L 2.34375 13.570312 C 2.78125 9.964844 4.085938 7.207031 6.257812 5.289062 C 8.429688 3.375 11.300781 2.417969 14.867188 2.417969 Z M 14.867188 2.417969 "/>
<path style=" stroke:none;fill-rule:evenodd;fill:rgb(92.941284%,49.01886%,19.215393%);fill-opacity:1;" d="M 12.625 36.824219 L 12.625 41.230469 L 17.03125 41.230469 L 17.03125 36.824219 Z M 12.125 35.824219 L 17.53125 35.824219 C 17.804688 35.824219 18.03125 36.050781 18.03125 36.324219 L 18.03125 41.730469 C 18.03125 42.007812 17.804688 42.230469 17.53125 42.230469 L 12.125 42.230469 C 11.847656 42.230469 11.625 42.007812 11.625 41.730469 L 11.625 36.324219 C 11.625 36.050781 11.847656 35.824219 12.125 35.824219 Z M 14.886719 2.917969 L 10.203125 3.617188 L 6.597656 5.671875 L 4.109375 9.019531 L 2.980469 13.140625 L 6.855469 13.601562 L 7.722656 10.515625 C 7.738281 10.460938 7.761719 10.410156 7.792969 10.367188 L 9.472656 7.933594 C 9.511719 7.878906 9.5625 7.828125 9.617188 7.792969 L 11.898438 6.371094 C 11.953125 6.335938 12.015625 6.3125 12.082031 6.300781 L 14.863281 5.828125 C 14.917969 5.816406 14.976562 5.816406 15.035156 5.828125 L 17.929688 6.351562 C 17.996094 6.363281 18.058594 6.386719 18.113281 6.425781 L 20.519531 7.996094 C 20.570312 8.03125 20.617188 8.074219 20.652344 8.125 L 22.273438 10.386719 C 22.316406 10.445312 22.34375 10.511719 22.355469 10.578125 L 22.898438 13.179688 C 22.914062 13.253906 22.910156 13.332031 22.890625 13.40625 L 22.152344 16.226562 C 22.136719 16.292969 22.105469 16.355469 22.066406 16.40625 L 20.894531 17.921875 C 20.878906 17.941406 20.863281 17.957031 20.847656 17.976562 L 18.804688 19.9375 L 16.742188 21.828125 L 15.449219 23.183594 L 13.644531 26.160156 L 13.082031 28.269531 L 12.886719 30.777344 L 12.90625 31.710938 L 16.503906 31.710938 L 16.609375 29.679688 L 16.878906 28.019531 C 16.886719 27.972656 16.898438 27.929688 16.917969 27.886719 L 17.972656 25.644531 C 17.996094 25.601562 18.023438 25.558594 18.054688 25.523438 L 19.199219 24.246094 L 21.109375 22.46875 L 23.96875 19.667969 L 25.660156 17.386719 L 26.5 15.269531 L 26.78125 12.957031 L 26.582031 10.960938 L 25.984375 9.117188 L 24.984375 7.421875 L 23.574219 5.875 L 21.824219 4.585938 L 19.800781 3.664062 L 17.480469 3.105469 Z M 14.902344 1.917969 L 17.59375 2.109375 C 17.621094 2.113281 17.648438 2.117188 17.675781 2.125 L 20.078125 2.703125 C 20.109375 2.710938 20.140625 2.71875 20.167969 2.734375 L 22.289062 3.695312 C 22.320312 3.710938 22.347656 3.730469 22.378906 3.75 L 24.207031 5.097656 C 24.234375 5.117188 24.257812 5.140625 24.28125 5.164062 L 25.757812 6.789062 C 25.78125 6.8125 25.800781 6.839844 25.816406 6.871094 L 26.871094 8.65625 C 26.890625 8.6875 26.90625 8.71875 26.917969 8.753906 L 27.550781 10.703125 C 27.5625 10.734375 27.570312 10.769531 27.574219 10.804688 L 27.785156 12.914062 C 27.789062 12.949219 27.785156 12.988281 27.78125 13.023438 L 27.484375 15.457031 C 27.480469 15.5 27.46875 15.542969 27.453125 15.582031 L 26.5625 17.816406 C 26.546875 17.855469 26.527344 17.894531 26.5 17.929688 L 24.746094 20.292969 C 24.730469 20.316406 24.714844 20.335938 24.695312 20.355469 L 21.808594 23.183594 L 19.882812 24.976562 L 18.847656 26.136719 L 17.855469 28.25 L 17.59375 29.839844 L 17.476562 32.238281 C 17.460938 32.503906 17.242188 32.710938 16.976562 32.710938 L 12.414062 32.710938 C 12.140625 32.710938 11.921875 32.492188 11.914062 32.222656 L 11.890625 30.796875 L 12.085938 28.144531 C 12.089844 28.117188 12.09375 28.085938 12.101562 28.054688 L 12.695312 25.832031 C 12.707031 25.789062 12.726562 25.742188 12.753906 25.703125 L 14.625 22.617188 C 14.644531 22.585938 14.664062 22.558594 14.691406 22.53125 L 16.019531 21.140625 L 18.128906 19.199219 L 20.125 17.28125 L 21.210938 15.875 L 21.894531 13.265625 L 21.398438 10.886719 L 19.894531 8.78125 L 17.652344 7.316406 L 14.945312 6.828125 L 12.347656 7.269531 L 10.234375 8.585938 L 8.660156 10.867188 L 7.703125 14.285156 C 7.636719 14.523438 7.40625 14.675781 7.160156 14.648438 L 2.285156 14.066406 C 2.140625 14.050781 2.007812 13.96875 1.929688 13.847656 C 1.847656 13.730469 1.820312 13.578125 1.859375 13.4375 L 3.167969 8.664062 C 3.183594 8.605469 3.214844 8.550781 3.25 8.5 L 5.855469 4.992188 C 5.898438 4.9375 5.949219 4.890625 6.011719 4.855469 L 9.792969 2.699219 C 9.84375 2.671875 9.902344 2.648438 9.964844 2.640625 L 14.792969 1.921875 C 14.828125 1.917969 14.867188 1.914062 14.902344 1.917969 Z M 14.902344 1.917969 "/>
<path style="fill-rule:evenodd;fill:rgb(100%,100%,100%);fill-opacity:1;stroke-width:1;stroke-linecap:butt;stroke-linejoin:round;stroke:rgb(92.941284%,49.01886%,19.215393%);stroke-opacity:1;stroke-miterlimit:10;" d="M 12.156077 -5.40538 L 17.562327 -5.40538 L 17.562327 0.00087 L 12.156077 0.00087 Z M 14.898265 -39.31163 C 18.675608 -39.31163 21.691233 -38.284286 23.941233 -36.229599 C 26.191233 -34.171005 27.316233 -31.682724 27.316233 -28.764755 C 27.316233 -27.077255 26.921702 -25.522567 26.128733 -24.100692 C 25.339671 -22.674911 23.792796 -20.944442 21.488108 -18.90538 C 19.941233 -17.534286 18.933421 -16.522567 18.456858 -15.87413 C 17.984202 -15.221786 17.63264 -14.475692 17.402171 -13.631942 C 17.175608 -12.788192 17.042796 -11.417099 17.00764 -9.518661 L 12.44514 -9.518661 C 12.429515 -10.151474 12.417796 -10.62413 12.417796 -10.940536 C 12.417796 -12.803817 12.683421 -14.413192 13.210765 -15.768661 C 13.597483 -16.788192 14.222483 -17.815536 15.081858 -18.850692 C 15.714671 -19.608505 16.85139 -20.710067 18.495921 -22.163192 C 20.140452 -23.612411 21.206858 -24.768661 21.699046 -25.628036 C 22.191233 -26.491317 22.437327 -27.428817 22.437327 -28.448349 C 22.437327 -30.296005 21.718577 -31.917099 20.277171 -33.315536 C 18.835765 -34.713974 17.07014 -35.409286 14.97639 -35.409286 C 12.956858 -35.409286 11.269358 -34.776474 9.91389 -33.510849 C 8.562327 -32.245224 7.671702 -30.268661 7.249827 -27.581161 L 2.374827 -28.159286 C 2.812327 -31.764755 4.117015 -34.522567 6.28889 -36.440536 C 8.460765 -38.354599 11.327952 -39.31163 14.898265 -39.31163 Z M 14.898265 -39.31163 " transform="matrix(1,0,0,1,-1.792796,39.96788)"/>
</g>
</svg>
